<svg width="40" height="40" viewBox="0 0 40 40" fill="none" xmlns="http://www.w3.org/2000/svg">
<g id="icon">
<path id="Subtract" fill-rule="evenodd" clip-rule="evenodd" d="M0 15C0 6.71573 6.71573 0 15 0H24.6992C32.9835 0 39.6992 6.71573 39.6992 15V25C39.6992 33.2843 32.9835 40 24.6992 40H15C6.71574 40 0 33.2843 0 25V15ZM18.6234 12.6393C17.5935 12.8229 16.672 13.3242 15.9627 14.0389C15.4704 14.535 15.0803 15.1337 14.8267 15.8011H20.3793V19.4076H14.8269H14.4967V24.6309V30.3248H10.9173V17.6045C10.9173 15.2166 11.8786 13.0541 13.4319 11.4889C14.7911 10.1195 16.604 9.20691 18.6234 9.00008V12.6393ZM20.3795 9.00008V12.6242C22.7296 12.9897 24.5297 15.0368 24.5297 17.507C24.5297 18.8495 23.9833 20.2195 23.0402 21.1698C22.2076 22.009 21.0825 22.5534 19.8322 22.6355V21.1765H16.2528V21.439V25.6117V30.3248H19.8322V26.2469C20.6648 26.215 21.4666 26.0633 22.2217 25.8092C22.1771 25.8243 22.1322 25.8394 22.087 25.8539L24.6489 30.3248H28.7822L25.1997 24.0725C25.1677 24.101 25.1356 24.1289 25.1033 24.1569C25.2645 24.0168 25.4205 23.8712 25.5711 23.7198C27.1245 22.1546 28.0855 19.9921 28.0855 17.6045C28.0855 15.2163 27.1245 13.0538 25.5711 11.4889C24.2119 10.1195 22.3988 9.20691 20.3795 9.00008ZM25.1033 24.1569C25.0947 24.1644 25.086 24.1718 25.0774 24.1793L25.0727 24.1833C25.0829 24.1745 25.0931 24.1657 25.1033 24.1569Z" fill="#222222"/>
</g>
</svg>
