<svg width="76" height="19" viewBox="0 0 76 19" fill="none" xmlns="http://www.w3.org/2000/svg">
<path d="M0.256054 18V1.2H11.1041V3.672H3.32805V8.376H9.61605V10.8H3.32805V18H0.256054ZM13.4028 18V6.096H16.1388L16.4268 8.328C16.8588 7.56 17.4428 6.952 18.1788 6.504C18.9308 6.04 19.8108 5.808 20.8188 5.808V9.048H19.9548C19.2828 9.048 18.6828 9.152 18.1548 9.36C17.6268 9.568 17.2108 9.928 16.9068 10.44C16.6188 10.952 16.4748 11.664 16.4748 12.576V18H13.4028ZM28.4915 18.288C27.2915 18.288 26.2275 18.032 25.2995 17.52C24.3715 17.008 23.6435 16.288 23.1155 15.36C22.5875 14.432 22.3235 13.36 22.3235 12.144C22.3235 10.912 22.5795 9.816 23.0915 8.856C23.6195 7.896 24.3395 7.152 25.2515 6.624C26.1795 6.08 27.2675 5.808 28.5155 5.808C29.6835 5.808 30.7155 6.064 31.6115 6.576C32.5075 7.088 33.2035 7.792 33.6995 8.688C34.2115 9.568 34.4675 10.552 34.4675 11.64C34.4675 11.816 34.4595 12 34.4435 12.192C34.4435 12.384 34.4355 12.584 34.4195 12.792H25.3715C25.4355 13.72 25.7555 14.448 26.3315 14.976C26.9235 15.504 27.6355 15.768 28.4675 15.768C29.0915 15.768 29.6115 15.632 30.0275 15.36C30.4595 15.072 30.7795 14.704 30.9875 14.256H34.1075C33.8835 15.008 33.5075 15.696 32.9795 16.32C32.4675 16.928 31.8275 17.408 31.0595 17.76C30.3075 18.112 29.4515 18.288 28.4915 18.288ZM28.5155 8.304C27.7635 8.304 27.0995 8.52 26.5235 8.952C25.9475 9.368 25.5795 10.008 25.4195 10.872H31.3475C31.2995 10.088 31.0115 9.464 30.4835 9C29.9555 8.536 29.2995 8.304 28.5155 8.304ZM42.8352 18.288C41.6352 18.288 40.5712 18.032 39.6432 17.52C38.7152 17.008 37.9872 16.288 37.4592 15.36C36.9312 14.432 36.6672 13.36 36.6672 12.144C36.6672 10.912 36.9232 9.816 37.4352 8.856C37.9632 7.896 38.6832 7.152 39.5952 6.624C40.5232 6.08 41.6112 5.808 42.8592 5.808C44.0272 5.808 45.0592 6.064 45.9552 6.576C46.8512 7.088 47.5472 7.792 48.0432 8.688C48.5552 9.568 48.8112 10.552 48.8112 11.64C48.8112 11.816 48.8032 12 48.7872 12.192C48.7872 12.384 48.7792 12.584 48.7632 12.792H39.7152C39.7792 13.72 40.0992 14.448 40.6752 14.976C41.2672 15.504 41.9792 15.768 42.8112 15.768C43.4352 15.768 43.9552 15.632 44.3712 15.36C44.8032 15.072 45.1232 14.704 45.3312 14.256H48.4512C48.2272 15.008 47.8512 15.696 47.3232 16.32C46.8112 16.928 46.1712 17.408 45.4032 17.76C44.6512 18.112 43.7952 18.288 42.8352 18.288ZM42.8592 8.304C42.1072 8.304 41.4432 8.52 40.8672 8.952C40.2912 9.368 39.9232 10.008 39.7632 10.872H45.6912C45.6432 10.088 45.3552 9.464 44.8272 9C44.2992 8.536 43.6432 8.304 42.8592 8.304ZM53.051 4.248C52.491 4.248 52.027 4.08 51.659 3.744C51.307 3.408 51.131 2.984 51.131 2.472C51.131 1.96 51.307 1.544 51.659 1.224C52.027 0.887999 52.491 0.719999 53.051 0.719999C53.611 0.719999 54.067 0.887999 54.419 1.224C54.787 1.544 54.971 1.96 54.971 2.472C54.971 2.984 54.787 3.408 54.419 3.744C54.067 4.08 53.611 4.248 53.051 4.248ZM51.515 18V6.096H54.587V18H51.515ZM63.5054 18.288C62.3534 18.288 61.3134 18.024 60.3854 17.496C59.4734 16.968 58.7454 16.24 58.2014 15.312C57.6734 14.368 57.4094 13.28 57.4094 12.048C57.4094 10.816 57.6814 9.736 58.2254 8.808C58.7694 7.864 59.4974 7.128 60.4094 6.6C61.3374 6.072 62.3774 5.808 63.5294 5.808C64.6654 5.808 65.6894 6.072 66.6014 6.6C67.5294 7.128 68.2574 7.864 68.7854 8.808C69.3294 9.736 69.6014 10.816 69.6014 12.048C69.6014 13.28 69.3294 14.368 68.7854 15.312C68.2574 16.24 67.5294 16.968 66.6014 17.496C65.6734 18.024 64.6414 18.288 63.5054 18.288ZM63.5054 15.624C64.3054 15.624 65.0014 15.328 65.5934 14.736C66.1854 14.128 66.4814 13.232 66.4814 12.048C66.4814 10.864 66.1854 9.976 65.5934 9.384C65.0014 8.776 64.3134 8.472 63.5294 8.472C62.7134 8.472 62.0094 8.776 61.4174 9.384C60.8414 9.976 60.5534 10.864 60.5534 12.048C60.5534 13.232 60.8414 14.128 61.4174 14.736C62.0094 15.328 62.7054 15.624 63.5054 15.624Z" fill="#222222"/>
<path d="M73.6681 18.168C73.1081 18.168 72.6441 17.992 72.2761 17.64C71.9241 17.288 71.7481 16.864 71.7481 16.368C71.7481 15.856 71.9241 15.424 72.2761 15.072C72.6441 14.72 73.1081 14.544 73.6681 14.544C74.2281 14.544 74.6841 14.72 75.0361 15.072C75.4041 15.424 75.5881 15.856 75.5881 16.368C75.5881 16.864 75.4041 17.288 75.0361 17.64C74.6841 17.992 74.2281 18.168 73.6681 18.168Z" fill="#5BBB7B"/>
</svg>
